<svg xmlns="http://www.w3.org/2000/svg" width="1200" height="680" viewBox="0 0 1200 680"><style>.bg{fill:#0b1220}.head{fill:#16233d}.sub{fill:#0f1b2e}.row{fill:#0c1728}.row2{fill:#0e1a2c}.box{fill:#101b2c;stroke:#2a3b52}.t{fill:#edf4ff;font-family:Arial,sans-serif}.m{fill:#9aa9bd;font-family:Arial,sans-serif}.g{fill:#3ee79a;font-family:Arial,sans-serif}.c{fill:#b9d7f6;font-family:Arial,sans-serif}.chip{fill:#11304b}.good{fill:#174d35}.mid{fill:#183653}.purple{fill:#432a57}</style><rect width="1200" height="680" class="bg"/><rect x="0" y="0" width="1200" height="54" rx="0" class="head"/><text x="22" y="34" class="t" font-size="22" font-weight="700" text-anchor="start">SimCo Profit Radar</text><text x="1135" y="34" class="m" font-size="27" font-weight="300" text-anchor="middle">×</text><text x="22" y="48" class="m" font-size="10" font-weight="400" text-anchor="start">产业链详情 · v0.4.1</text><text x="22" y="72" class="m" font-size="10" font-weight="400" text-anchor="start">搜索</text><rect x="22" y="78" width="250" height="32" rx="5" class="box"/><text x="32" y="99" class="t" font-size="11" font-weight="400" text-anchor="start">商品或建筑；搜索时不截断</text><text x="284" y="72" class="m" font-size="10" font-weight="400" text-anchor="start">路径</text><rect x="284" y="78" width="130" height="32" rx="5" class="box"/><text x="294" y="99" class="t" font-size="11" font-weight="400" text-anchor="start">全部路径</text><text x="426" y="72" class="m" font-size="10" font-weight="400" text-anchor="start">质量</text><rect x="426" y="78" width="70" height="32" rx="5" class="box"/><text x="436" y="99" class="t" font-size="11" font-weight="400" text-anchor="start">Q0</text><text x="508" y="72" class="m" font-size="10" font-weight="400" text-anchor="start">矿藏丰度 %</text><rect x="508" y="78" width="95" height="32" rx="5" class="box"/><text x="518" y="99" class="t" font-size="11" font-weight="400" text-anchor="start">90</text><text x="615" y="72" class="m" font-size="10" font-weight="400" text-anchor="start">零售批量</text><rect x="615" y="78" width="95" height="32" rx="5" class="box"/><text x="625" y="99" class="t" font-size="11" font-weight="400" text-anchor="start">1000</text><text x="722" y="72" class="m" font-size="10" font-weight="400" text-anchor="start">最多显示</text><rect x="722" y="78" width="95" height="32" rx="5" class="box"/><text x="732" y="99" class="t" font-size="11" font-weight="400" text-anchor="start">500</text><rect x="829" y="78" width="105" height="32" rx="5" class="chip"/><text x="881" y="99" class="t" font-size="11" font-weight="600" text-anchor="middle">刷新数据</text><rect x="0" y="126" width="1200" height="34" rx="0" class="sub"/><text x="22" y="148" class="g" font-size="12" font-weight="400" text-anchor="start">最优产业链 → 交易所：Rocket Engine · PPHPL $1,742.6 · 全局 make-or-buy 已收敛</text><rect x="18" y="174" width="1164" height="72" rx="8" class="row"/><text x="38" y="204" class="t" font-size="20" font-weight="700" text-anchor="start">Rocket Engine</text><rect x="38" y="213" width="64" height="24" rx="12" class="chip"/><text x="70.0" y="230" class="c" font-size="12" font-weight="500" text-anchor="middle">产业链</text><rect x="108" y="213" width="95" height="24" rx="12" class="chip"/><text x="155.5" y="230" class="c" font-size="12" font-weight="500" text-anchor="middle">自产 5 节点</text><text x="620" y="205" class="g" font-size="20" font-weight="700" text-anchor="start">$1,742.6</text><text x="760" y="205" class="t" font-size="13" font-weight="400" text-anchor="start">总等级 1.684</text><text x="915" y="205" class="t" font-size="13" font-weight="400" text-anchor="start">小时利润 $2,934.1</text><text x="22" y="278" class="t" font-size="16" font-weight="700" text-anchor="start">平衡产业链方案</text><text x="170" y="278" class="m" font-size="12" font-weight="400" text-anchor="start">目标：最高 PPHPL，而非最低单位现金成本</text><rect x="0" y="292" width="1200" height="34" rx="0" class="head"/><text x="18" y="314" class="c" font-size="11" font-weight="600" text-anchor="start">决策</text><text x="100" y="314" class="c" font-size="11" font-weight="600" text-anchor="start">资源</text><text x="330" y="314" class="c" font-size="11" font-weight="600" text-anchor="start">建筑 / 来源</text><text x="570" y="314" class="c" font-size="11" font-weight="600" text-anchor="start">小时需求</text><text x="720" y="314" class="c" font-size="11" font-weight="600" text-anchor="start">产能 / 价格</text><text x="890" y="314" class="c" font-size="11" font-weight="600" text-anchor="start">所需等级</text><text x="1030" y="314" class="c" font-size="11" font-weight="600" text-anchor="start">小时成本</text><rect x="0" y="326" width="1200" height="42" rx="0" class="row"/><rect x="18" y="335" width="58" height="24" rx="12" class="good"/><text x="47.0" y="352" class="c" font-size="12" font-weight="500" text-anchor="middle">自产</text><text x="100" y="353" class="t" font-size="13" font-weight="600" text-anchor="start">Rocket Engine</text><text x="330" y="353" class="c" font-size="12" font-weight="400" text-anchor="start">Propulsion Factory</text><text x="570" y="353" class="t" font-size="12" font-weight="400" text-anchor="start">1.68</text><text x="720" y="353" class="t" font-size="12" font-weight="400" text-anchor="start">1.68 / 级</text><text x="890" y="353" class="g" font-size="12" font-weight="600" text-anchor="start">1.000</text><text x="1030" y="353" class="t" font-size="12" font-weight="400" text-anchor="start">$621.0</text><rect x="0" y="368" width="1200" height="42" rx="0" class="row2"/><rect x="18" y="377" width="58" height="24" rx="12" class="good"/><text x="47.0" y="394" class="c" font-size="12" font-weight="500" text-anchor="middle">自产</text><text x="100" y="395" class="t" font-size="13" font-weight="600" text-anchor="start">High-grade E-comps</text><text x="330" y="395" class="c" font-size="12" font-weight="400" text-anchor="start">Electronics Factory</text><text x="570" y="395" class="t" font-size="12" font-weight="400" text-anchor="start">5.04</text><text x="720" y="395" class="t" font-size="12" font-weight="400" text-anchor="start">11.02 / 级</text><text x="890" y="395" class="g" font-size="12" font-weight="600" text-anchor="start">0.457</text><text x="1030" y="395" class="t" font-size="12" font-weight="400" text-anchor="start">$173.5</text><rect x="0" y="410" width="1200" height="42" rx="0" class="row"/><rect x="18" y="419" width="58" height="24" rx="12" class="purple"/><text x="47.0" y="436" class="c" font-size="12" font-weight="500" text-anchor="middle">外购</text><text x="100" y="437" class="t" font-size="13" font-weight="600" text-anchor="start">Steel</text><text x="330" y="437" class="c" font-size="12" font-weight="400" text-anchor="start">Exchange</text><text x="570" y="437" class="t" font-size="12" font-weight="400" text-anchor="start">8.40</text><text x="720" y="437" class="t" font-size="12" font-weight="400" text-anchor="start">$12.63</text><text x="890" y="437" class="g" font-size="12" font-weight="600" text-anchor="start">—</text><text x="1030" y="437" class="t" font-size="12" font-weight="400" text-anchor="start">$106.1</text><rect x="0" y="452" width="1200" height="42" rx="0" class="row2"/><rect x="18" y="461" width="58" height="24" rx="12" class="good"/><text x="47.0" y="478" class="c" font-size="12" font-weight="500" text-anchor="middle">自产</text><text x="100" y="479" class="t" font-size="13" font-weight="600" text-anchor="start">Electronic Components</text><text x="330" y="479" class="c" font-size="12" font-weight="400" text-anchor="start">Electronics Factory</text><text x="570" y="479" class="t" font-size="12" font-weight="400" text-anchor="start">15.12</text><text x="720" y="479" class="t" font-size="12" font-weight="400" text-anchor="start">247.9 / 级</text><text x="890" y="479" class="g" font-size="12" font-weight="600" text-anchor="start">0.061</text><text x="1030" y="479" class="t" font-size="12" font-weight="400" text-anchor="start">$23.2</text><rect x="0" y="494" width="1200" height="42" rx="0" class="row"/><rect x="18" y="503" width="58" height="24" rx="12" class="good"/><text x="47.0" y="520" class="c" font-size="12" font-weight="500" text-anchor="middle">自产</text><text x="100" y="521" class="t" font-size="13" font-weight="600" text-anchor="start">Silicon</text><text x="330" y="521" class="c" font-size="12" font-weight="400" text-anchor="start">Factory</text><text x="570" y="521" class="t" font-size="12" font-weight="400" text-anchor="start">45.36</text><text x="720" y="521" class="t" font-size="12" font-weight="400" text-anchor="start">924.1 / 级</text><text x="890" y="521" class="g" font-size="12" font-weight="600" text-anchor="start">0.049</text><text x="1030" y="521" class="t" font-size="12" font-weight="400" text-anchor="start">$20.3</text><rect x="0" y="536" width="1200" height="42" rx="0" class="row2"/><rect x="18" y="545" width="58" height="24" rx="12" class="purple"/><text x="47.0" y="562" class="c" font-size="12" font-weight="500" text-anchor="middle">外购</text><text x="100" y="563" class="t" font-size="13" font-weight="600" text-anchor="start">Chemicals</text><text x="330" y="563" class="c" font-size="12" font-weight="400" text-anchor="start">Exchange</text><text x="570" y="563" class="t" font-size="12" font-weight="400" text-anchor="start">15.12</text><text x="720" y="563" class="t" font-size="12" font-weight="400" text-anchor="start">$16.16</text><text x="890" y="563" class="g" font-size="12" font-weight="600" text-anchor="start">—</text><text x="1030" y="563" class="t" font-size="12" font-weight="400" text-anchor="start">$244.3</text><rect x="0" y="578" width="1200" height="42" rx="0" class="row"/><rect x="18" y="587" width="58" height="24" rx="12" class="purple"/><text x="47.0" y="604" class="c" font-size="12" font-weight="500" text-anchor="middle">外购</text><text x="100" y="605" class="t" font-size="13" font-weight="600" text-anchor="start">Sand</text><text x="330" y="605" class="c" font-size="12" font-weight="400" text-anchor="start">Exchange</text><text x="570" y="605" class="t" font-size="12" font-weight="400" text-anchor="start">90.72</text><text x="720" y="605" class="t" font-size="12" font-weight="400" text-anchor="start">$1.33</text><text x="890" y="605" class="g" font-size="12" font-weight="600" text-anchor="start">—</text><text x="1030" y="605" class="t" font-size="12" font-weight="400" text-anchor="start">$120.7</text><rect x="0" y="620" width="1200" height="30" rx="0" class="sub"/><text x="22" y="640" class="c" font-size="11" font-weight="400" text-anchor="start">全链汇总：自产 5 节点 · 外购 4 节点 · 最大深度 4 · 现金成本 $1,583.4/h</text><text x="1110" y="640" class="g" font-size="13" font-weight="700" text-anchor="middle">$1,742.6</text><rect x="0" y="650" width="1200" height="30" rx="0" class="head"/><text x="22" y="670" class="m" font-size="10" font-weight="400" text-anchor="start">v0.4.1 实际界面布局 · 确定性演示数据（非实时市场结果）</text></svg>