<svg xmlns="http://www.w3.org/2000/svg" width="1200" height="520" viewBox="0 0 1200 520"><style>.bg{fill:#080f1d}.panel{fill:#0b1220;stroke:#2b3a50;stroke-width:2}.head{fill:#16233d}.box{fill:#101b2c;stroke:#334155}.t{fill:#eef5ff;font-family:Arial,'Noto Sans SC',sans-serif}.m{fill:#9eacc0;font-family:Arial,'Noto Sans SC',sans-serif}.g{fill:#45e3a1;font-family:Arial,'Noto Sans SC',sans-serif}.chip{fill:#173451}.row{fill:#0e1a2c}</style><rect width="1200" height="520" class="bg"/><text x="600" y="34" class="t" font-size="24" font-weight="700" text-anchor="middle">Runtime language switching · 运行时语言切换</text><g transform="translate(25 58)"><rect width="555" height="420" rx="12" class="panel"/><rect width="555" height="54" rx="12" class="head"/><text x="20" y="31" class="t" font-size="20" font-weight="700">SimCo Profit Radar</text><text x="20" y="47" class="m" font-size="10">All-resource PPHPL ranking · v0.5.0</text><text x="20" y="80" class="m" font-size="10">Language</text><rect x="20" y="88" width="105" height="32" rx="6" class="box"/><text x="31" y="109" class="t" font-size="12">English</text><text x="140" y="80" class="m" font-size="10">Search</text><rect x="140" y="88" width="220" height="32" rx="6" class="box"/><text x="151" y="109" class="m" font-size="11">Resource or building</text><text x="375" y="80" class="m" font-size="10">Route</text><rect x="375" y="88" width="155" height="32" rx="6" class="box"/><text x="386" y="109" class="t" font-size="11">All routes</text><rect x="0" y="138" width="555" height="34" class="row"/><text x="20" y="160" class="g" font-size="11">Analyzed 151 resources; 252 routes generated.</text><text x="20" y="202" class="m" font-size="12">#   Resource</text><text x="250" y="202" class="m" font-size="12">Route</text><text x="430" y="202" class="m" font-size="12">PPHPL</text><rect x="14" y="215" width="527" height="54" rx="7" class="row"/><text x="28" y="247" class="t" font-size="14" font-weight="700">1   Rocket Engine</text><rect x="245" y="229" width="170" height="26" rx="13" class="chip"/><text x="330" y="247" class="t" font-size="11" text-anchor="middle">Optimized chain → Exchange</text><text x="445" y="248" class="g" font-size="16" font-weight="700">$1,742.6</text><rect x="14" y="280" width="527" height="54" rx="7" class="row"/><text x="28" y="312" class="t" font-size="14" font-weight="700">2   Steak</text><rect x="245" y="294" width="170" height="26" rx="13" class="chip"/><text x="330" y="312" class="t" font-size="11" text-anchor="middle">Production → Exchange</text><text x="445" y="313" class="g" font-size="16" font-weight="700">$1,018.4</text><text x="20" y="392" class="m" font-size="10">Switches immediately; no page reload or network refresh.</text></g><g transform="translate(620 58)"><rect width="555" height="420" rx="12" class="panel"/><rect width="555" height="54" rx="12" class="head"/><text x="20" y="31" class="t" font-size="20" font-weight="700">SimCo Profit Radar</text><text x="20" y="47" class="m" font-size="10">全品类 PPHPL 排名 · v0.5.0</text><text x="20" y="80" class="m" font-size="10">语言</text><rect x="20" y="88" width="105" height="32" rx="6" class="box"/><text x="31" y="109" class="t" font-size="12">中文</text><text x="140" y="80" class="m" font-size="10">搜索</text><rect x="140" y="88" width="220" height="32" rx="6" class="box"/><text x="151" y="109" class="m" font-size="11">商品或建筑</text><text x="375" y="80" class="m" font-size="10">路径</text><rect x="375" y="88" width="155" height="32" rx="6" class="box"/><text x="386" y="109" class="t" font-size="11">全部路径</text><rect x="0" y="138" width="555" height="34" class="row"/><text x="20" y="160" class="g" font-size="11">已分析 151 个资源；成功生成 252 条路径。</text><text x="20" y="202" class="m" font-size="12">#   商品</text><text x="250" y="202" class="m" font-size="12">路径</text><text x="430" y="202" class="m" font-size="12">PPHPL</text><rect x="14" y="215" width="527" height="54" rx="7" class="row"/><text x="28" y="247" class="t" font-size="14" font-weight="700">1   Rocket Engine</text><rect x="245" y="229" width="170" height="26" rx="13" class="chip"/><text x="330" y="247" class="t" font-size="11" text-anchor="middle">最优产业链 → 交易所</text><text x="445" y="248" class="g" font-size="16" font-weight="700">$1,742.6</text><rect x="14" y="280" width="527" height="54" rx="7" class="row"/><text x="28" y="312" class="t" font-size="14" font-weight="700">2   Steak</text><rect x="245" y="294" width="170" height="26" rx="13" class="chip"/><text x="330" y="312" class="t" font-size="11" text-anchor="middle">生产 → 交易所</text><text x="445" y="313" class="g" font-size="16" font-weight="700">$1,018.4</text><text x="20" y="392" class="m" font-size="10">立即切换，无需刷新页面或重新请求数据。</text></g><text x="600" y="506" class="m" font-size="10" text-anchor="middle">Deterministic demonstration data · 确定性演示数据（非实时市场结果）</text></svg>