<svg xmlns="http://www.w3.org/2000/svg" width="1200" height="680" viewBox="0 0 1200 680"><style>.bg{fill:#0b1220}.head{fill:#16233d}.sub{fill:#0f1b2e}.row{fill:#0c1728}.row2{fill:#0e1a2c}.box{fill:#101b2c;stroke:#2a3b52}.t{fill:#edf4ff;font-family:Arial,sans-serif}.m{fill:#9aa9bd;font-family:Arial,sans-serif}.g{fill:#3ee79a;font-family:Arial,sans-serif}.c{fill:#b9d7f6;font-family:Arial,sans-serif}.chip{fill:#11304b}.good{fill:#174d35}.mid{fill:#183653}.purple{fill:#432a57}</style><rect width="1200" height="680" class="bg"/><rect x="0" y="0" width="1200" height="54" rx="0" class="head"/><text x="22" y="34" class="t" font-size="22" font-weight="700" text-anchor="start">SimCo Profit Radar</text><text x="1135" y="34" class="m" font-size="27" font-weight="300" text-anchor="middle">×</text><text x="22" y="48" class="m" font-size="10" font-weight="400" text-anchor="start">全品类 PPHPL 排名 · v0.4.1</text><text x="22" y="72" class="m" font-size="10" font-weight="400" text-anchor="start">搜索</text><rect x="22" y="78" width="250" height="32" rx="5" class="box"/><text x="32" y="99" class="t" font-size="11" font-weight="400" text-anchor="start">商品或建筑；搜索时不截断</text><text x="284" y="72" class="m" font-size="10" font-weight="400" text-anchor="start">路径</text><rect x="284" y="78" width="130" height="32" rx="5" class="box"/><text x="294" y="99" class="t" font-size="11" font-weight="400" text-anchor="start">全部路径</text><text x="426" y="72" class="m" font-size="10" font-weight="400" text-anchor="start">质量</text><rect x="426" y="78" width="70" height="32" rx="5" class="box"/><text x="436" y="99" class="t" font-size="11" font-weight="400" text-anchor="start">Q0</text><text x="508" y="72" class="m" font-size="10" font-weight="400" text-anchor="start">矿藏丰度 %</text><rect x="508" y="78" width="95" height="32" rx="5" class="box"/><text x="518" y="99" class="t" font-size="11" font-weight="400" text-anchor="start">90</text><text x="615" y="72" class="m" font-size="10" font-weight="400" text-anchor="start">零售批量</text><rect x="615" y="78" width="95" height="32" rx="5" class="box"/><text x="625" y="99" class="t" font-size="11" font-weight="400" text-anchor="start">1000</text><text x="722" y="72" class="m" font-size="10" font-weight="400" text-anchor="start">最多显示</text><rect x="722" y="78" width="95" height="32" rx="5" class="box"/><text x="732" y="99" class="t" font-size="11" font-weight="400" text-anchor="start">500</text><rect x="829" y="78" width="105" height="32" rx="5" class="chip"/><text x="881" y="99" class="t" font-size="11" font-weight="600" text-anchor="middle">刷新数据</text><text x="22" y="138" class="m" font-size="14" font-weight="400" text-anchor="start">▾ 计算范围、季节口径与个人参数</text><rect x="22" y="150" width="70" height="24" rx="12" class="chip"/><text x="57.0" y="167" class="c" font-size="12" font-weight="500" text-anchor="middle">领域 R1</text><rect x="99" y="150" width="95" height="24" rx="12" class="chip"/><text x="146.5" y="167" class="c" font-size="12" font-weight="500" text-anchor="middle">公司等级 12</text><rect x="201" y="150" width="110" height="24" rx="12" class="chip"/><text x="256.0" y="167" class="c" font-size="12" font-weight="500" text-anchor="middle">生产加成 18%</text><rect x="318" y="150" width="110" height="24" rx="12" class="chip"/><text x="373.0" y="167" class="c" font-size="12" font-weight="500" text-anchor="middle">销售加成 20%</text><rect x="435" y="150" width="112" height="24" rx="12" class="chip"/><text x="491.0" y="167" class="c" font-size="12" font-weight="500" text-anchor="middle">管理费 ×1.076</text><rect x="554" y="150" width="112" height="24" rx="12" class="chip"/><text x="610.0" y="167" class="c" font-size="12" font-weight="500" text-anchor="middle">经济状态 Boom</text><rect x="673" y="150" width="90" height="24" rx="12" class="chip"/><text x="718.0" y="167" class="c" font-size="12" font-weight="500" text-anchor="middle">加速 ×6.00</text><rect x="770" y="150" width="125" height="24" rx="12" class="chip"/><text x="832.5" y="167" class="c" font-size="12" font-weight="500" text-anchor="middle">Summer 当季 24%</text><rect x="0" y="185" width="1200" height="32" rx="0" class="sub"/><text x="22" y="206" class="g" font-size="11" font-weight="400" text-anchor="start">演示数据：已分析 151 个资源；成功生成 252 条路径。市场、季节、账号与产业链模块均已加载。</text><text x="22" y="246" class="m" font-size="14" font-weight="400" text-anchor="start">▾ 路径覆盖与缺失原因</text><rect x="0" y="260" width="1200" height="34" rx="0" class="head"/><text x="18" y="282" class="c" font-size="11" font-weight="600" text-anchor="start">#</text><text x="55" y="282" class="c" font-size="11" font-weight="600" text-anchor="start">商品</text><text x="310" y="282" class="c" font-size="11" font-weight="600" text-anchor="start">路径</text><text x="550" y="282" class="c" font-size="11" font-weight="600" text-anchor="start">PPHPL</text><text x="685" y="282" class="c" font-size="11" font-weight="600" text-anchor="start">利润率</text><text x="790" y="282" class="c" font-size="11" font-weight="600" text-anchor="start">价格</text><text x="900" y="282" class="c" font-size="11" font-weight="600" text-anchor="start">建筑</text><text x="1110" y="282" class="c" font-size="11" font-weight="600" text-anchor="start">可信度</text><rect x="0" y="294" width="1200" height="54" rx="0" class="row"/><text x="18" y="326" class="c" font-size="12" font-weight="400" text-anchor="start">1</text><text x="55" y="318" class="t" font-size="15" font-weight="700" text-anchor="start">Rocket Engine</text><rect x="310" y="309" width="185" height="24" rx="12" class="chip"/><text x="402.5" y="326" class="c" font-size="12" font-weight="500" text-anchor="middle">最优产业链 → 交易所</text><text x="550" y="328" class="g" font-size="16" font-weight="700" text-anchor="start">$1,742.6</text><text x="685" y="328" class="t" font-size="12" font-weight="400" text-anchor="start">21.8%</text><text x="790" y="328" class="t" font-size="12" font-weight="400" text-anchor="start">$12,601.7</text><text x="900" y="328" class="c" font-size="11" font-weight="400" text-anchor="start">Propulsion Factory + 4 上游</text><rect x="1110" y="309" width="55" height="24" rx="12" class="mid"/><text x="1137.5" y="326" class="c" font-size="12" font-weight="500" text-anchor="middle">中</text><rect x="0" y="348" width="1200" height="54" rx="0" class="row2"/><text x="18" y="380" class="c" font-size="12" font-weight="400" text-anchor="start">2</text><text x="55" y="372" class="t" font-size="15" font-weight="700" text-anchor="start">Steak</text><rect x="310" y="363" width="185" height="24" rx="12" class="chip"/><text x="402.5" y="380" class="c" font-size="12" font-weight="500" text-anchor="middle">生产 → 交易所</text><text x="550" y="382" class="g" font-size="16" font-weight="700" text-anchor="start">$1,018.4</text><text x="685" y="382" class="t" font-size="12" font-weight="400" text-anchor="start">18.7%</text><text x="790" y="382" class="t" font-size="12" font-weight="400" text-anchor="start">$50.646</text><text x="900" y="382" class="c" font-size="11" font-weight="400" text-anchor="start">Slaughterhouse</text><rect x="1110" y="363" width="55" height="24" rx="12" class="good"/><text x="1137.5" y="380" class="c" font-size="12" font-weight="500" text-anchor="middle">高</text><rect x="0" y="402" width="1200" height="54" rx="0" class="row"/><text x="18" y="434" class="c" font-size="12" font-weight="400" text-anchor="start">3</text><text x="55" y="426" class="t" font-size="15" font-weight="700" text-anchor="start">Chocolate icecream</text><rect x="310" y="417" width="185" height="24" rx="12" class="chip"/><text x="402.5" y="434" class="c" font-size="12" font-weight="500" text-anchor="middle">生产 → 零售</text><text x="550" y="436" class="g" font-size="16" font-weight="700" text-anchor="start">$934.7</text><text x="685" y="436" class="t" font-size="12" font-weight="400" text-anchor="start">43.1%</text><text x="790" y="436" class="t" font-size="12" font-weight="400" text-anchor="start">$169.5</text><text x="900" y="436" class="c" font-size="11" font-weight="400" text-anchor="start">Ice Cream Store + Food Factory</text><rect x="1110" y="417" width="55" height="24" rx="12" class="good"/><text x="1137.5" y="434" class="c" font-size="12" font-weight="500" text-anchor="middle">高</text><rect x="55" y="429" width="44" height="24" rx="12" class="purple"/><text x="77.0" y="446" class="c" font-size="12" font-weight="500" text-anchor="middle">季节</text><rect x="103" y="429" width="44" height="24" rx="12" class="good"/><text x="125.0" y="446" class="c" font-size="12" font-weight="500" text-anchor="middle">当季</text><rect x="151" y="429" width="44" height="24" rx="12" class="good"/><text x="173.0" y="446" class="c" font-size="12" font-weight="500" text-anchor="middle">衰减</text><rect x="0" y="456" width="1200" height="54" rx="0" class="row2"/><text x="18" y="488" class="c" font-size="12" font-weight="400" text-anchor="start">4</text><text x="55" y="480" class="t" font-size="15" font-weight="700" text-anchor="start">Luxury Car</text><rect x="310" y="471" width="185" height="24" rx="12" class="chip"/><text x="402.5" y="488" class="c" font-size="12" font-weight="500" text-anchor="middle">最优产业链 → 零售</text><text x="550" y="490" class="g" font-size="16" font-weight="700" text-anchor="start">$812.3</text><text x="685" y="490" class="t" font-size="12" font-weight="400" text-anchor="start">17.6%</text><text x="790" y="490" class="t" font-size="12" font-weight="400" text-anchor="start">$7,790</text><text x="900" y="490" class="c" font-size="11" font-weight="400" text-anchor="start">Car Dealership + 6 上游</text><rect x="1110" y="471" width="55" height="24" rx="12" class="mid"/><text x="1137.5" y="488" class="c" font-size="12" font-weight="500" text-anchor="middle">中</text><rect x="0" y="510" width="1200" height="54" rx="0" class="row"/><text x="18" y="542" class="c" font-size="12" font-weight="400" text-anchor="start">5</text><text x="55" y="534" class="t" font-size="15" font-weight="700" text-anchor="start">Tools</text><rect x="310" y="525" width="185" height="24" rx="12" class="chip"/><text x="402.5" y="542" class="c" font-size="12" font-weight="500" text-anchor="middle">生产 → 交易所</text><text x="550" y="544" class="g" font-size="16" font-weight="700" text-anchor="start">$728.5</text><text x="685" y="544" class="t" font-size="12" font-weight="400" text-anchor="start">15.2%</text><text x="790" y="544" class="t" font-size="12" font-weight="400" text-anchor="start">$217.09</text><text x="900" y="544" class="c" font-size="11" font-weight="400" text-anchor="start">Factory</text><rect x="1110" y="525" width="55" height="24" rx="12" class="mid"/><text x="1137.5" y="542" class="c" font-size="12" font-weight="500" text-anchor="middle">中</text><rect x="0" y="564" width="1200" height="54" rx="0" class="row2"/><text x="18" y="596" class="c" font-size="12" font-weight="400" text-anchor="start">6</text><text x="55" y="588" class="t" font-size="15" font-weight="700" text-anchor="start">Crude Oil</text><rect x="310" y="579" width="185" height="24" rx="12" class="chip"/><text x="402.5" y="596" class="c" font-size="12" font-weight="500" text-anchor="middle">生产 → 交易所</text><text x="550" y="598" class="g" font-size="16" font-weight="700" text-anchor="start">$682.1</text><text x="685" y="598" class="t" font-size="12" font-weight="400" text-anchor="start">30.5%</text><text x="790" y="598" class="t" font-size="12" font-weight="400" text-anchor="start">$34.36</text><text x="900" y="598" class="c" font-size="11" font-weight="400" text-anchor="start">Oil Rig</text><rect x="1110" y="579" width="55" height="24" rx="12" class="mid"/><text x="1137.5" y="596" class="c" font-size="12" font-weight="500" text-anchor="middle">估算</text><rect x="0" y="650" width="1200" height="30" rx="0" class="head"/><text x="22" y="670" class="m" font-size="10" font-weight="400" text-anchor="start">v0.4.1 实际界面布局 · 确定性演示数据（非实时市场结果）</text></svg>