<svg xmlns="http://www.w3.org/2000/svg" width="1200" height="680" viewBox="0 0 1200 680"><style>.bg{fill:#0b1220}.head{fill:#16233d}.sub{fill:#0f1b2e}.row{fill:#0c1728}.row2{fill:#0e1a2c}.box{fill:#101b2c;stroke:#2a3b52}.t{fill:#edf4ff;font-family:Arial,sans-serif}.m{fill:#9aa9bd;font-family:Arial,sans-serif}.g{fill:#3ee79a;font-family:Arial,sans-serif}.c{fill:#b9d7f6;font-family:Arial,sans-serif}.chip{fill:#11304b}.good{fill:#174d35}.mid{fill:#183653}.purple{fill:#432a57}</style><rect width="1200" height="680" class="bg"/><rect x="0" y="0" width="1200" height="54" rx="0" class="head"/><text x="22" y="34" class="t" font-size="22" font-weight="700" text-anchor="start">SimCo Profit Radar</text><text x="1135" y="34" class="m" font-size="27" font-weight="300" text-anchor="middle">×</text><text x="22" y="48" class="m" font-size="10" font-weight="400" text-anchor="start">季节参数与衰减 · v0.4.1</text><text x="22" y="72" class="m" font-size="10" font-weight="400" text-anchor="start">搜索</text><rect x="22" y="78" width="250" height="32" rx="5" class="box"/><text x="32" y="99" class="t" font-size="11" font-weight="400" text-anchor="start">商品或建筑；搜索时不截断</text><text x="284" y="72" class="m" font-size="10" font-weight="400" text-anchor="start">路径</text><rect x="284" y="78" width="130" height="32" rx="5" class="box"/><text x="294" y="99" class="t" font-size="11" font-weight="400" text-anchor="start">全部路径</text><text x="426" y="72" class="m" font-size="10" font-weight="400" text-anchor="start">质量</text><rect x="426" y="78" width="70" height="32" rx="5" class="box"/><text x="436" y="99" class="t" font-size="11" font-weight="400" text-anchor="start">Q0</text><text x="508" y="72" class="m" font-size="10" font-weight="400" text-anchor="start">矿藏丰度 %</text><rect x="508" y="78" width="95" height="32" rx="5" class="box"/><text x="518" y="99" class="t" font-size="11" font-weight="400" text-anchor="start">90</text><text x="615" y="72" class="m" font-size="10" font-weight="400" text-anchor="start">零售批量</text><rect x="615" y="78" width="95" height="32" rx="5" class="box"/><text x="625" y="99" class="t" font-size="11" font-weight="400" text-anchor="start">1000</text><text x="722" y="72" class="m" font-size="10" font-weight="400" text-anchor="start">最多显示</text><rect x="722" y="78" width="95" height="32" rx="5" class="box"/><text x="732" y="99" class="t" font-size="11" font-weight="400" text-anchor="start">500</text><rect x="829" y="78" width="105" height="32" rx="5" class="chip"/><text x="881" y="99" class="t" font-size="11" font-weight="600" text-anchor="middle">刷新数据</text><rect x="18" y="130" width="1164" height="190" rx="8" class="sub"/><text x="34" y="156" class="t" font-size="15" font-weight="600" text-anchor="start">▾ 计算范围、季节口径与个人参数</text><text x="34" y="172" class="m" font-size="10" font-weight="400" text-anchor="start">季节路线</text><rect x="34" y="179" width="180" height="32" rx="5" class="box"/><text x="43" y="200" class="t" font-size="11" font-weight="400" text-anchor="start">当前可执行（推荐）</text><text x="226" y="172" class="m" font-size="10" font-weight="400" text-anchor="start">生产速度口径</text><rect x="226" y="179" width="140" height="32" rx="5" class="box"/><text x="235" y="200" class="t" font-size="11" font-weight="400" text-anchor="start">自动核对</text><text x="378" y="172" class="m" font-size="10" font-weight="400" text-anchor="start">衰减持有 / 挂单小时</text><rect x="378" y="179" width="135" height="32" rx="5" class="box"/><text x="387" y="200" class="t" font-size="11" font-weight="400" text-anchor="start">2</text><text x="525" y="172" class="m" font-size="10" font-weight="400" text-anchor="start">Tree 研究质量级数</text><rect x="525" y="179" width="130" height="32" rx="5" class="box"/><text x="534" y="200" class="t" font-size="11" font-weight="400" text-anchor="start">3</text><text x="667" y="172" class="m" font-size="10" font-weight="400" text-anchor="start">产业链策略</text><rect x="667" y="179" width="200" height="32" rx="5" class="box"/><text x="676" y="200" class="t" font-size="11" font-weight="400" text-anchor="start">全局最优 make-or-buy</text><text x="879" y="172" class="m" font-size="10" font-weight="400" text-anchor="start">最大深度</text><rect x="879" y="179" width="90" height="32" rx="5" class="box"/><text x="888" y="200" class="t" font-size="11" font-weight="400" text-anchor="start">12</text><text x="34" y="285" class="m" font-size="10" font-weight="400" text-anchor="start">当前季节</text><rect x="110" y="271" width="135" height="24" rx="12" class="good"/><text x="177.5" y="288" class="c" font-size="12" font-weight="500" text-anchor="middle">Summer · 当季 24%</text><rect x="252" y="271" width="125" height="24" rx="12" class="mid"/><text x="314.5" y="288" class="c" font-size="12" font-weight="500" text-anchor="middle">天气销量 ×1.18</text><rect x="384" y="271" width="205" height="24" rx="12" class="chip"/><text x="486.5" y="288" class="c" font-size="12" font-weight="500" text-anchor="middle">结束 2026-08-29 11:00 UTC</text><rect x="596" y="271" width="175" height="24" rx="12" class="purple"/><text x="683.5" y="288" class="c" font-size="12" font-weight="500" text-anchor="middle">冰淇淋衰减 5% / 小时</text><rect x="0" y="334" width="1200" height="34" rx="0" class="sub"/><text x="22" y="356" class="g" font-size="12" font-weight="400" text-anchor="start">Chocolate icecream：持有 2 小时后预计剩余 90.25%；相关路径已自动扣除损耗。</text><rect x="0" y="382" width="1200" height="34" rx="0" class="head"/><text x="18" y="404" class="c" font-size="11" font-weight="600" text-anchor="start">#</text><text x="55" y="404" class="c" font-size="11" font-weight="600" text-anchor="start">商品</text><text x="330" y="404" class="c" font-size="11" font-weight="600" text-anchor="start">路径</text><text x="580" y="404" class="c" font-size="11" font-weight="600" text-anchor="start">PPHPL</text><text x="710" y="404" class="c" font-size="11" font-weight="600" text-anchor="start">天气 / 衰减</text><text x="895" y="404" class="c" font-size="11" font-weight="600" text-anchor="start">建筑</text><text x="1110" y="404" class="c" font-size="11" font-weight="600" text-anchor="start">可信度</text><rect x="0" y="416" width="1200" height="54" rx="0" class="row"/><text x="18" y="448" class="c" font-size="12" font-weight="400" text-anchor="start">1</text><text x="55" y="439" class="t" font-size="15" font-weight="700" text-anchor="start">Chocolate icecream</text><rect x="330" y="431" width="190" height="24" rx="12" class="chip"/><text x="425.0" y="448" class="c" font-size="12" font-weight="500" text-anchor="middle">生产 → 零售</text><text x="580" y="450" class="g" font-size="16" font-weight="700" text-anchor="start">$934.7</text><text x="710" y="450" class="t" font-size="12" font-weight="400" text-anchor="start">×1.18 / 90.25%</text><text x="895" y="450" class="c" font-size="11" font-weight="400" text-anchor="start">Ice Cream Store + Food Factory</text><rect x="1110" y="431" width="55" height="24" rx="12" class="good"/><text x="1137.5" y="448" class="c" font-size="12" font-weight="500" text-anchor="middle">高</text><rect x="55" y="443" width="44" height="24" rx="12" class="purple"/><text x="77.0" y="460" class="c" font-size="12" font-weight="500" text-anchor="middle">季节</text><rect x="103" y="443" width="44" height="24" rx="12" class="good"/><text x="125.0" y="460" class="c" font-size="12" font-weight="500" text-anchor="middle">当季</text><rect x="151" y="443" width="44" height="24" rx="12" class="good"/><text x="173.0" y="460" class="c" font-size="12" font-weight="500" text-anchor="middle">衰减</text><rect x="0" y="470" width="1200" height="54" rx="0" class="row2"/><text x="18" y="502" class="c" font-size="12" font-weight="400" text-anchor="start">2</text><text x="55" y="493" class="t" font-size="15" font-weight="700" text-anchor="start">Chocolate icecream</text><rect x="330" y="485" width="190" height="24" rx="12" class="chip"/><text x="425.0" y="502" class="c" font-size="12" font-weight="500" text-anchor="middle">交易所购入 → 零售</text><text x="580" y="504" class="g" font-size="16" font-weight="700" text-anchor="start">$808.9</text><text x="710" y="504" class="t" font-size="12" font-weight="400" text-anchor="start">×1.18 / 90.25%</text><text x="895" y="504" class="c" font-size="11" font-weight="400" text-anchor="start">Ice Cream Store</text><rect x="1110" y="485" width="55" height="24" rx="12" class="mid"/><text x="1137.5" y="502" class="c" font-size="12" font-weight="500" text-anchor="middle">中</text><rect x="55" y="497" width="44" height="24" rx="12" class="purple"/><text x="77.0" y="514" class="c" font-size="12" font-weight="500" text-anchor="middle">季节</text><rect x="103" y="497" width="44" height="24" rx="12" class="good"/><text x="125.0" y="514" class="c" font-size="12" font-weight="500" text-anchor="middle">当季</text><rect x="151" y="497" width="44" height="24" rx="12" class="good"/><text x="173.0" y="514" class="c" font-size="12" font-weight="500" text-anchor="middle">衰减</text><rect x="0" y="524" width="1200" height="54" rx="0" class="row"/><text x="18" y="556" class="c" font-size="12" font-weight="400" text-anchor="start">3</text><text x="55" y="547" class="t" font-size="15" font-weight="700" text-anchor="start">Apple icecream</text><rect x="330" y="539" width="190" height="24" rx="12" class="chip"/><text x="425.0" y="556" class="c" font-size="12" font-weight="500" text-anchor="middle">最优产业链 → 零售</text><text x="580" y="558" class="g" font-size="16" font-weight="700" text-anchor="start">$742.4</text><text x="710" y="558" class="t" font-size="12" font-weight="400" text-anchor="start">×1.18 / 90.25%</text><text x="895" y="558" class="c" font-size="11" font-weight="400" text-anchor="start">Ice Cream Store + 3 上游</text><rect x="1110" y="539" width="55" height="24" rx="12" class="mid"/><text x="1137.5" y="556" class="c" font-size="12" font-weight="500" text-anchor="middle">中</text><rect x="55" y="551" width="44" height="24" rx="12" class="purple"/><text x="77.0" y="568" class="c" font-size="12" font-weight="500" text-anchor="middle">季节</text><rect x="103" y="551" width="44" height="24" rx="12" class="good"/><text x="125.0" y="568" class="c" font-size="12" font-weight="500" text-anchor="middle">当季</text><rect x="151" y="551" width="44" height="24" rx="12" class="good"/><text x="173.0" y="568" class="c" font-size="12" font-weight="500" text-anchor="middle">衰减</text><rect x="0" y="578" width="1200" height="54" rx="0" class="row2"/><text x="18" y="610" class="c" font-size="12" font-weight="400" text-anchor="start">4</text><text x="55" y="601" class="t" font-size="15" font-weight="700" text-anchor="start">Pumpkin</text><rect x="330" y="593" width="190" height="24" rx="12" class="chip"/><text x="425.0" y="610" class="c" font-size="12" font-weight="500" text-anchor="middle">生产 → 交易所</text><text x="580" y="612" class="g" font-size="16" font-weight="700" text-anchor="start">$311.8</text><text x="710" y="612" class="t" font-size="12" font-weight="400" text-anchor="start">当前年度产季</text><text x="895" y="612" class="c" font-size="11" font-weight="400" text-anchor="start">Farm</text><rect x="1110" y="593" width="55" height="24" rx="12" class="mid"/><text x="1137.5" y="610" class="c" font-size="12" font-weight="500" text-anchor="middle">估算</text><rect x="0" y="650" width="1200" height="30" rx="0" class="head"/><text x="22" y="670" class="m" font-size="10" font-weight="400" text-anchor="start">v0.4.1 实际界面布局 · 确定性演示数据（非实时市场结果）</text></svg>